<?xml version="1.0" standalone="no"?>
<!DOCTYPE svg PUBLIC "-//W3C//DTD SVG 20010904//EN"
 "http://www.w3.org/TR/2001/REC-SVG-20010904/DTD/svg10.dtd">
<svg version="1.0" xmlns="http://www.w3.org/2000/svg"
 width="320.000000pt" height="320.000000pt" viewBox="0 0 320.000000 320.000000"
 preserveAspectRatio="xMidYMid meet">
<metadata>
Created by potrace 1.11, written by Peter Selinger 2001-2013
</metadata>
<g transform="translate(0.000000,320.000000) scale(0.100000,-0.100000)"
fill="#000000" stroke="none">
<path d="M0 1600 l0 -1600 1600 0 1600 0 0 1600 0 1600 -1600 0 -1600 0 0
-1600z m2754 1414 c20 -20 20 -68 0 -88 -14 -14 -134 -16 -1169 -16 -1270 0
-1185 -4 -1185 60 0 64 -85 60 1185 60 1035 0 1155 -2 1169 -16z m-6 -260 c26
-18 29 -60 8 -90 -14 -19 -38 -19 -1171 -19 -1133 0 -1157 0 -1171 19 -21 30
-18 72 8 90 20 14 147 16 1163 16 1016 0 1143 -2 1163 -16z m-1567 -322 c177
-71 257 -224 246 -471 -6 -146 -24 -199 -89 -264 l-48 -48 36 -31 c75 -66 104
-167 104 -357 0 -189 -33 -301 -111 -386 -93 -101 -186 -125 -486 -125 l-213
0 0 856 0 856 253 -4 c233 -3 256 -5 308 -26z m789 -332 l0 -360 135 0 135 0
0 360 0 360 135 0 135 0 0 -855 0 -855 -135 0 -135 0 0 375 0 375 -135 0 -135
0 0 -375 0 -375 -135 0 -135 0 0 855 0 855 135 0 135 0 0 -360z m786 -1554
c21 -30 18 -72 -8 -90 -20 -14 -147 -16 -1163 -16 -1016 0 -1143 2 -1163 16
-36 25 -25 91 18 107 8 3 529 5 1158 4 1119 -2 1144 -2 1158 -21z m-2 -262
c20 -20 20 -68 0 -88 -14 -14 -134 -16 -1169 -16 -1270 0 -1185 -4 -1185 60 0
64 -85 60 1185 60 1035 0 1155 -2 1169 -16z"/>
<path d="M890 1990 l0 -223 91 5 c106 6 132 20 167 90 33 66 33 201 0 260 -33
61 -75 81 -175 86 l-83 5 0 -223z"/>
<path d="M890 1276 l0 -256 75 0 c91 0 133 16 170 65 24 31 29 49 35 123 9
112 -2 217 -27 250 -41 55 -68 67 -164 70 l-89 4 0 -256z"/>
</g>
</svg>
